<?xml version="1.0" encoding="UTF-8" standalone="no"?>
<svg
   viewBox="0 0 640 640"
   version="1.1"
   id="svg1"
   sodipodi:docname="hand-holding-heart-solid-full.svg"
   inkscape:version="1.4.2 (f4327f4, 2025-05-13)"
   xmlns:inkscape="http://www.inkscape.org/namespaces/inkscape"
   xmlns:sodipodi="http://sodipodi.sourceforge.net/DTD/sodipodi-0.dtd"
   xmlns="http://www.w3.org/2000/svg"
   xmlns:svg="http://www.w3.org/2000/svg">
  <defs
     id="defs1" />
  <sodipodi:namedview
     id="namedview1"
     pagecolor="#ffffff"
     bordercolor="#000000"
     borderopacity="0.25"
     inkscape:showpageshadow="2"
     inkscape:pageopacity="0.0"
     inkscape:pagecheckerboard="0"
     inkscape:deskcolor="#d1d1d1"
     inkscape:zoom="0.90625"
     inkscape:cx="226.75862"
     inkscape:cy="308.41379"
     inkscape:window-width="1734"
     inkscape:window-height="1344"
     inkscape:window-x="809"
     inkscape:window-y="8"
     inkscape:window-maximized="0"
     inkscape:current-layer="svg1" />
  <!--!Font Awesome Free 7.1.0 by @fontawesome - https://fontawesome.com License - https://fontawesome.com/license/free Copyright 2025 Fonticons, Inc.-->
  <path
     d="M311.6 95C297.5 75.5 274.9 64 250.9 64C209.5 64 176 97.5 176 138.9L176 141.3C176 205.7 258 274.7 298.2 304.6C311.2 314.3 328.7 314.3 341.7 304.6C381.9 274.6 463.9 205.7 463.9 141.3L463.9 138.9C463.9 97.5 430.4 64 389 64C365 64 342.4 75.5 328.3 95L320 106.7L311.6 95zM141.3 405.5L98.7 448L64 448C46.3 448 32 462.3 32 480L32 544C32 561.7 46.3 576 64 576L384.5 576C413.5 576 441.8 566.7 465.2 549.5L591.8 456.2C609.6 443.1 613.4 418.1 600.3 400.3C587.2 382.5 562.2 378.7 544.4 391.8L424.6 480L312 480C298.7 480 288 469.3 288 456C288 442.7 298.7 432 312 432L384 432C401.7 432 416 417.7 416 400C416 382.3 401.7 368 384 368L231.8 368C197.9 368 165.3 381.5 141.3 405.5z"
     id="path1"
     style="fill:#264b70;fill-opacity:1" />
</svg>
