<?xml version="1.0" encoding="UTF-8" standalone="no"?>
<svg
   viewBox="0 0 640 640"
   version="1.1"
   id="svg1"
   sodipodi:docname="square-linkedin-brands-solid-full.svg"
   inkscape:version="1.4.2 (f4327f4, 2025-05-13)"
   xmlns:inkscape="http://www.inkscape.org/namespaces/inkscape"
   xmlns:sodipodi="http://sodipodi.sourceforge.net/DTD/sodipodi-0.dtd"
   xmlns="http://www.w3.org/2000/svg"
   xmlns:svg="http://www.w3.org/2000/svg">
  <defs
     id="defs1" />
  <sodipodi:namedview
     id="namedview1"
     pagecolor="#ffffff"
     bordercolor="#000000"
     borderopacity="0.25"
     inkscape:showpageshadow="2"
     inkscape:pageopacity="0.0"
     inkscape:pagecheckerboard="0"
     inkscape:deskcolor="#d1d1d1"
     inkscape:zoom="0.90625"
     inkscape:cx="277.51724"
     inkscape:cy="308.41379"
     inkscape:window-width="1897"
     inkscape:window-height="1344"
     inkscape:window-x="1"
     inkscape:window-y="8"
     inkscape:window-maximized="0"
     inkscape:current-layer="svg1" />
  <!--!Font Awesome Free 7.1.0 by @fontawesome - https://fontawesome.com License - https://fontawesome.com/license/free Copyright 2025 Fonticons, Inc.-->
  <path
     d="M160 96C124.7 96 96 124.7 96 160L96 480C96 515.3 124.7 544 160 544L480 544C515.3 544 544 515.3 544 480L544 160C544 124.7 515.3 96 480 96L160 96zM165 266.2L231.5 266.2L231.5 480L165 480L165 266.2zM236.7 198.5C236.7 219.8 219.5 237 198.2 237C176.9 237 159.7 219.8 159.7 198.5C159.7 177.2 176.9 160 198.2 160C219.5 160 236.7 177.2 236.7 198.5zM413.9 480L413.9 376C413.9 351.2 413.4 319.3 379.4 319.3C344.8 319.3 339.5 346.3 339.5 374.2L339.5 480L273.1 480L273.1 266.2L336.8 266.2L336.8 295.4L337.7 295.4C346.6 278.6 368.3 260.9 400.6 260.9C467.8 260.9 480.3 305.2 480.3 362.8L480.3 480L413.9 480z"
     id="path1"
     style="fill:#ffffff;fill-opacity:1" />
</svg>
