<?xml version="1.0" encoding="UTF-8" standalone="no"?>
<svg
   viewBox="0 0 640 640"
   version="1.1"
   id="svg1"
   sodipodi:docname="envelope-open-solid-full.svg"
   inkscape:version="1.4.2 (f4327f4, 2025-05-13)"
   xmlns:inkscape="http://www.inkscape.org/namespaces/inkscape"
   xmlns:sodipodi="http://sodipodi.sourceforge.net/DTD/sodipodi-0.dtd"
   xmlns="http://www.w3.org/2000/svg"
   xmlns:svg="http://www.w3.org/2000/svg">
  <defs
     id="defs1" />
  <sodipodi:namedview
     id="namedview1"
     pagecolor="#ffffff"
     bordercolor="#000000"
     borderopacity="0.25"
     inkscape:showpageshadow="2"
     inkscape:pageopacity="0.0"
     inkscape:pagecheckerboard="0"
     inkscape:deskcolor="#d1d1d1"
     inkscape:zoom="0.90625"
     inkscape:cx="290.75862"
     inkscape:cy="323.86207"
     inkscape:window-width="1897"
     inkscape:window-height="1344"
     inkscape:window-x="1"
     inkscape:window-y="8"
     inkscape:window-maximized="0"
     inkscape:current-layer="svg1" />
  <!--!Font Awesome Free 7.1.0 by @fontawesome - https://fontawesome.com License - https://fontawesome.com/license/free Copyright 2025 Fonticons, Inc.-->
  <path
     d="M128.4 239.8L320 97.9L511.6 239.8L353.5 357C343.8 364.2 332.1 368 320 368C307.9 368 296.2 364.1 286.5 357L128.4 239.8zM320 32C307.9 32 296.2 35.9 286.5 43L89.9 188.7C73.6 200.8 64 219.8 64 240.1L64 480C64 515.3 92.7 544 128 544L512 544C547.3 544 576 515.3 576 480L576 240.1C576 219.8 566.4 200.7 550.1 188.7L353.5 43C343.8 35.8 332.1 32 320 32z"
     id="path1"
     style="fill:#ffffff;fill-opacity:1" />
</svg>
