<?xml version="1.0" encoding="UTF-8" standalone="no"?>
<svg
   viewBox="0 0 640 640"
   version="1.1"
   id="svg1"
   sodipodi:docname="map-location-dot-solid-full.svg"
   inkscape:version="1.4.2 (f4327f4, 2025-05-13)"
   xmlns:inkscape="http://www.inkscape.org/namespaces/inkscape"
   xmlns:sodipodi="http://sodipodi.sourceforge.net/DTD/sodipodi-0.dtd"
   xmlns="http://www.w3.org/2000/svg"
   xmlns:svg="http://www.w3.org/2000/svg">
  <defs
     id="defs1" />
  <sodipodi:namedview
     id="namedview1"
     pagecolor="#ffffff"
     bordercolor="#000000"
     borderopacity="0.25"
     inkscape:showpageshadow="2"
     inkscape:pageopacity="0.0"
     inkscape:pagecheckerboard="0"
     inkscape:deskcolor="#d1d1d1"
     inkscape:zoom="1.281631"
     inkscape:cx="176.72793"
     inkscape:cy="279.72169"
     inkscape:window-width="1897"
     inkscape:window-height="1344"
     inkscape:window-x="1"
     inkscape:window-y="8"
     inkscape:window-maximized="0"
     inkscape:current-layer="svg1" />
  <!--!Font Awesome Free 7.1.0 by @fontawesome - https://fontawesome.com License - https://fontawesome.com/license/free Copyright 2025 Fonticons, Inc.-->
  <path
     d="M576 112C576 100.9 570.3 90.6 560.8 84.8C551.3 79 539.6 78.4 529.7 83.4L413.5 141.5L234.1 81.6C226 78.9 217.3 79.5 209.7 83.3L81.7 147.3C70.8 152.8 64 163.9 64 176L64 528C64 539.1 69.7 549.4 79.2 555.2C88.7 561 100.4 561.6 110.3 556.6L226.4 498.5L399.7 556.3C395.4 549.9 391.2 543.2 387.1 536.4C376.1 518.1 365.2 497.1 357.1 474.6L255.9 440.9L255.9 156.4L383.9 199.1L383.9 298.4C414.9 262.6 460.9 240 511.9 240C534.5 240 556.1 244.4 575.9 252.5L576 112zM512 288C445.7 288 392 340.8 392 405.9C392 474.8 456.1 556.3 490.6 595.2C502.2 608.2 521.9 608.2 533.5 595.2C568 556.3 632.1 474.8 632.1 405.9C632.1 340.8 578.4 288 512.1 288zM472 408C472 385.9 489.9 368 512 368C534.1 368 552 385.9 552 408C552 430.1 534.1 448 512 448C489.9 448 472 430.1 472 408z"
     id="path1"
     style="fill:#ffffff;fill-opacity:1" />
</svg>
