<?xml version="1.0" encoding="UTF-8" standalone="no"?>
<svg
   viewBox="0 0 640 640"
   version="1.1"
   id="svg1"
   sodipodi:docname="quote-left-solid-full.svg"
   inkscape:version="1.4.2 (f4327f4, 2025-05-13)"
   xmlns:inkscape="http://www.inkscape.org/namespaces/inkscape"
   xmlns:sodipodi="http://sodipodi.sourceforge.net/DTD/sodipodi-0.dtd"
   xmlns="http://www.w3.org/2000/svg"
   xmlns:svg="http://www.w3.org/2000/svg">
  <defs
     id="defs1" />
  <sodipodi:namedview
     id="namedview1"
     pagecolor="#ffffff"
     bordercolor="#000000"
     borderopacity="0.25"
     inkscape:showpageshadow="2"
     inkscape:pageopacity="0.0"
     inkscape:pagecheckerboard="0"
     inkscape:deskcolor="#d1d1d1"
     inkscape:zoom="0.90625"
     inkscape:cx="190.34483"
     inkscape:cy="420.96552"
     inkscape:window-width="1897"
     inkscape:window-height="1344"
     inkscape:window-x="1"
     inkscape:window-y="8"
     inkscape:window-maximized="0"
     inkscape:current-layer="svg1" />
  <!--!Font Awesome Free 7.1.0 by @fontawesome - https://fontawesome.com License - https://fontawesome.com/license/free Copyright 2025 Fonticons, Inc.-->
  <path
     d="M96 280C96 213.7 149.7 160 216 160L224 160C241.7 160 256 174.3 256 192C256 209.7 241.7 224 224 224L216 224C185.1 224 160 249.1 160 280L160 288L224 288C259.3 288 288 316.7 288 352L288 416C288 451.3 259.3 480 224 480L160 480C124.7 480 96 451.3 96 416L96 280zM352 280C352 213.7 405.7 160 472 160L480 160C497.7 160 512 174.3 512 192C512 209.7 497.7 224 480 224L472 224C441.1 224 416 249.1 416 280L416 288L480 288C515.3 288 544 316.7 544 352L544 416C544 451.3 515.3 480 480 480L416 480C380.7 480 352 451.3 352 416L352 280z"
     id="path1"
     style="fill:#2c4969;fill-opacity:0.35000002" />
</svg>
