<?xml version="1.0" encoding="UTF-8" standalone="no"?>
<svg
   viewBox="0 0 640 640"
   version="1.1"
   id="svg1"
   sodipodi:docname="quote-right-solid-full.svg"
   inkscape:version="1.4.2 (f4327f4, 2025-05-13)"
   xmlns:inkscape="http://www.inkscape.org/namespaces/inkscape"
   xmlns:sodipodi="http://sodipodi.sourceforge.net/DTD/sodipodi-0.dtd"
   xmlns="http://www.w3.org/2000/svg"
   xmlns:svg="http://www.w3.org/2000/svg">
  <defs
     id="defs1" />
  <sodipodi:namedview
     id="namedview1"
     pagecolor="#ffffff"
     bordercolor="#000000"
     borderopacity="0.25"
     inkscape:showpageshadow="2"
     inkscape:pageopacity="0.0"
     inkscape:pagecheckerboard="0"
     inkscape:deskcolor="#d1d1d1"
     inkscape:zoom="0.90625"
     inkscape:cx="243.31034"
     inkscape:cy="196.41379"
     inkscape:window-width="2560"
     inkscape:window-height="1369"
     inkscape:window-x="-8"
     inkscape:window-y="-8"
     inkscape:window-maximized="1"
     inkscape:current-layer="svg1" />
  <!--!Font Awesome Free 7.1.0 by @fontawesome - https://fontawesome.com License - https://fontawesome.com/license/free Copyright 2025 Fonticons, Inc.-->
  <path
     d="M544 360C544 426.3 490.3 480 424 480L416 480C398.3 480 384 465.7 384 448C384 430.3 398.3 416 416 416L424 416C454.9 416 480 390.9 480 360L480 352L416 352C380.7 352 352 323.3 352 288L352 224C352 188.7 380.7 160 416 160L480 160C515.3 160 544 188.7 544 224L544 360zM288 360C288 426.3 234.3 480 168 480L160 480C142.3 480 128 465.7 128 448C128 430.3 142.3 416 160 416L168 416C198.9 416 224 390.9 224 360L224 352L160 352C124.7 352 96 323.3 96 288L96 224C96 188.7 124.7 160 160 160L224 160C259.3 160 288 188.7 288 224L288 360z"
     id="path1"
     style="fill:#2c4969;fill-opacity:0.34999999" />
</svg>
