<?xml version="1.0" encoding="UTF-8" standalone="no"?>
<!-- Created with Inkscape (http://www.inkscape.org/) -->

<svg
   width="802.29999"
   height="148.8"
   viewBox="0 0 212.2752 39.370001"
   version="1.1"
   id="svg1"
   inkscape:version="1.4.2 (f4327f4, 2025-05-13)"
   sodipodi:docname="logo-sticker.svg"
   xmlns:inkscape="http://www.inkscape.org/namespaces/inkscape"
   xmlns:sodipodi="http://sodipodi.sourceforge.net/DTD/sodipodi-0.dtd"
   xmlns="http://www.w3.org/2000/svg"
   xmlns:svg="http://www.w3.org/2000/svg">
  <sodipodi:namedview
     id="namedview1"
     pagecolor="#ffffff"
     bordercolor="#000000"
     borderopacity="0.25"
     inkscape:showpageshadow="2"
     inkscape:pageopacity="0.0"
     inkscape:pagecheckerboard="0"
     inkscape:deskcolor="#d1d1d1"
     inkscape:document-units="mm"
     inkscape:zoom="0.73071669"
     inkscape:cx="358.55209"
     inkscape:cy="273.01963"
     inkscape:window-width="1897"
     inkscape:window-height="1344"
     inkscape:window-x="1"
     inkscape:window-y="8"
     inkscape:window-maximized="0"
     inkscape:current-layer="layer1" />
  <defs
     id="defs1" />
  <g
     inkscape:label="Layer 1"
     inkscape:groupmode="layer"
     id="layer1">
    <g
       id="g14"
       style="fill:#222222;fill-opacity:1"
       transform="matrix(0.35794113,0,0,0.35794113,-29.147174,-112.1536)">
      <path
         id="path3"
         d="m 432.90292,349.45815 c 0,2.6324 -0.3304,5.2176 -0.99133,7.75333 -0.65573,2.516 -1.6336,4.92093 -2.93293,7.2124 -1.28734,2.2704 -2.7972,4.3196 -4.52947,6.14627 l -0.41453,0.42906 c 0.13946,0.14174 0.27813,0.28454 0.41453,0.42854 1.73227,1.82666 3.24213,3.87586 4.52947,6.14626 1.29933,2.29147 2.2772,4.6964 2.93293,7.21254 0.66027,2.53453 0.99133,5.12013 0.99133,7.75253 0,4.18653 -0.75746,8.11267 -2.27306,11.77507 -1.5068,3.64533 -3.74734,6.95813 -6.71734,9.93186 l -0.0107,0.0107 -0.0107,0.0107 c -2.97333,2.97 -6.2864,5.2108 -9.93173,6.71773 -3.66134,1.5148 -7.58707,2.27306 -11.7752,2.27306 h -68.62294 -5.17533 v -5.17533 -51.08493 -5.1752 h 5.17533 68.62294 c 1.7824,0 3.38573,-0.29253 4.8076,-0.87573 1.44786,-0.59414 2.80026,-1.51187 4.0512,-2.74854 1.2224,-1.20826 2.134,-2.53146 2.73226,-3.96626 0.59334,-1.42294 0.89014,-3.01494 0.89014,-4.77307 0,-1.76093 -0.29747,-3.35773 -0.89014,-4.7868 -0.59493,-1.4332 -1.52053,-2.778 -2.77266,-4.03053 -1.25254,-1.25254 -2.59734,-2.17774 -4.0308,-2.77267 -1.42907,-0.59253 -3.0256,-0.89 -4.7876,-0.89 h -68.62294 -5.17533 v -5.17533 -7.8868 -5.1752 h 5.17533 68.62294 c 4.18813,0 8.11386,0.75853 11.7752,2.27293 3.64533,1.50733 6.9584,3.74773 9.93173,6.71773 l 0.0107,0.0107 0.0107,0.0107 c 2.97,2.97373 5.21054,6.28573 6.71734,9.93146 1.51493,3.662 2.27306,7.58814 2.27306,11.7748 z m -21.89973,51.89893 c 1.25213,-1.25213 2.17773,-2.59733 2.77267,-4.03053 0.59266,-1.42907 0.89013,-3.02587 0.89013,-4.78747 0,-1.75747 -0.2968,-3.34947 -0.89013,-4.77173 -0.59827,-1.43507 -1.50987,-2.75867 -2.73227,-3.96694 -1.25173,-1.23746 -2.60333,-2.1544 -4.0512,-2.74853 -1.42187,-0.58307 -3.0252,-0.8756 -4.8076,-0.8756 h -55.56093 v 24.84347 h 55.56093 c 1.762,0 3.35853,-0.29707 4.7876,-0.89 1.43347,-0.59494 2.77827,-1.52014 4.0308,-2.77267"
         style="fill:#222222;fill-opacity:1;fill-rule:evenodd;stroke:none;stroke-width:1.33333" />
      <path
         id="path5"
         d="m 651.96012,318.74081 h 11.18213 11.44373 l -7.58213,8.5916 -38.53573,43.6664 38.53573,43.66667 7.58173,8.59173 h -11.44333 -11.18213 -2.3316 l -1.54987,-1.75906 -32.01867,-36.32307 -32.01986,36.32307 -1.55027,1.75906 h -2.33093 -11.1824 -11.44373 l 7.58253,-8.59173 38.53533,-43.66667 -38.53533,-43.6664 -7.5832,-8.5916 h 11.4444 11.1824 2.33093 l 1.55027,1.75894 32.01986,36.3232 32.01867,-36.3232 1.54987,-1.75894 z"
         style="fill:#222222;fill-opacity:1;fill-rule:evenodd;stroke:none;stroke-width:1.33333" />
      <path
         id="path6"
         d="m 461.38199,407.96935 c -5.05547,-5.05467 -8.86973,-10.69374 -11.44093,-16.91187 -2.5644,-6.20413 -3.8472,-12.8904 -3.8472,-20.05867 0,-7.16826 1.2828,-13.85506 3.8472,-20.0584 2.5712,-6.21653 6.38506,-11.8556 11.44093,-16.91186 5.05587,-5.05587 10.69493,-8.86974 16.9116,-11.44067 6.2036,-2.5644 12.89,-3.84707 20.05906,-3.84707 h 47.08227 5.17533 v 5.1752 7.8868 5.17534 h -5.17533 -47.08227 c -4.44813,0 -8.552,0.72786 -12.31,2.18186 -3.7908,1.4668 -7.29893,3.6764 -10.52106,6.6252 -3.228,2.9548 -5.7604,6.2456 -7.59267,9.86827 -0.9872,1.95293 -1.77333,4.00893 -2.35693,6.16827 h 79.86293 5.17533 v 5.1752 8.004 5.17533 h -5.17533 -79.86293 c 0.5828,2.1592 1.36893,4.2156 2.35693,6.16893 1.83227,3.62227 4.36467,6.91307 7.59267,9.8676 3.22213,2.94867 6.73026,5.15827 10.52106,6.62507 3.7588,1.4548 7.86254,2.18187 12.31,2.18187 h 47.08227 5.17533 v 5.17573 7.8864 5.17533 h -5.17533 -47.08227 c -7.16826,0 -13.85546,-1.2828 -20.05906,-3.8476 -6.21734,-2.5704 -11.85573,-6.3844 -16.9116,-11.44026"
         style="fill:#222222;fill-opacity:1;fill-rule:evenodd;stroke:none;stroke-width:1.33333" />
      <path
         id="path7"
         d="m 199.694,415.55481 52.96773,-94.16573 4.5136,-8.0236 4.50253,8.0236 52.85067,94.16573 4.32293,7.7024 h -8.8312 -9.65133 -3.024 l -1.48427,-2.6484 -38.69707,-69.06333 -38.80213,69.06333 -1.4876,2.6484 h -3.02027 -9.65173 -8.84 z"
         style="fill:#222222;fill-opacity:1;fill-rule:evenodd;stroke:none;stroke-width:1.33333" />
      <path
         id="path8"
         d="m 155.11746,405.01975 h 18.4804 7.0624 5.17534 v 5.17573 7.8864 5.17533 h -5.17534 -25.5428 -68.622929 -5.175333 v -5.17533 -6.12053 -1.76587 -86.27947 -5.1752 h 5.175333 7.886667 5.175333 v 5.1752 81.10374 z"
         style="fill:#222222;fill-opacity:1;fill-rule:evenodd;stroke:none;stroke-width:1.33333" />
    </g>
  </g>
</svg>
