<?xml version="1.0" encoding="UTF-8" standalone="no"?>
<!-- Created with Inkscape (http://www.inkscape.org/) -->

<svg
   width="802.29999"
   height="226.8"
   viewBox="0 0 212.2752 60.007501"
   version="1.1"
   id="svg1"
   inkscape:version="1.4.2 (f4327f4, 2025-05-13)"
   sodipodi:docname="logo-blue-nomargin.svg"
   xmlns:inkscape="http://www.inkscape.org/namespaces/inkscape"
   xmlns:sodipodi="http://sodipodi.sourceforge.net/DTD/sodipodi-0.dtd"
   xmlns="http://www.w3.org/2000/svg"
   xmlns:svg="http://www.w3.org/2000/svg">
  <sodipodi:namedview
     id="namedview1"
     pagecolor="#ffffff"
     bordercolor="#000000"
     borderopacity="0.25"
     inkscape:showpageshadow="2"
     inkscape:pageopacity="0.0"
     inkscape:pagecheckerboard="0"
     inkscape:deskcolor="#d1d1d1"
     inkscape:document-units="mm"
     inkscape:zoom="0.51669473"
     inkscape:cx="341.59435"
     inkscape:cy="583.5167"
     inkscape:window-width="1278"
     inkscape:window-height="1360"
     inkscape:window-x="1273"
     inkscape:window-y="0"
     inkscape:window-maximized="0"
     inkscape:current-layer="layer1" />
  <defs
     id="defs1" />
  <g
     inkscape:label="Layer 1"
     inkscape:groupmode="layer"
     id="layer1">
    <g
       id="g15"
       transform="matrix(0.35794113,0,0,0.35794113,-29.147174,-112.1536)"
       style="fill:#2f4a69;fill-opacity:1">
      <path
         id="path4"
         d="m 132.4307,210.0716 h 0.0422 l 4.4184,11.5002 h 3.2556 v -14.9672 h -2.0929 v 12.5149 h -0.0422 l -4.968,-12.5149 h -1.332 l -4.9467,12.5149 h -0.0423 v -12.5149 h -2.0296 v 14.9672 h 3.2559 z m 16.5107,-1.6067 h 7.8219 v -1.8603 h -9.915 v 14.9672 h 9.5978 v -1.8391 h -7.5047 v -4.4819 h 7.0608 v -1.7969 h -7.0608 z m 13.6777,13.1069 h 5.1369 c 0.9587,0 1.9168,-0.1409 2.8752,-0.4227 0.9584,-0.2817 1.8252,-0.7259 2.6002,-1.332 0.7753,-0.6057 1.4023,-1.381 1.8817,-2.3252 0.479,-0.9442 0.7186,-2.079 0.7186,-3.4039 0,-1.2824 -0.2396,-2.3921 -0.7186,-3.3295 -0.4794,-0.9372 -1.1064,-1.7122 -1.8817,-2.3253 -0.775,-0.6131 -1.6418,-1.0712 -2.6002,-1.3742 -0.9584,-0.3031 -1.9165,-0.4544 -2.8752,-0.4544 h -5.1369 z m 2.0928,-13.1281 h 2.6215 c 0.902,0 1.7371,0.127 2.5052,0.3807 0.768,0.2537 1.4304,0.6199 1.9871,1.0993 0.5568,0.479 0.9902,1.0709 1.3,1.7756 0.3101,0.7047 0.4652,1.5009 0.4652,2.3887 0,0.9304 -0.1551,1.7479 -0.4652,2.4526 -0.3098,0.7047 -0.7432,1.2928 -1.3,1.7651 -0.5567,0.4723 -1.2191,0.8314 -1.9871,1.078 -0.7681,0.2469 -1.6032,0.3702 -2.5052,0.3702 h -2.6215 z m 18.8929,-1.8391 h -2.0928 v 14.9672 h 2.0928 z m 19.5338,2.3252 c -0.5921,-0.803 -1.3603,-1.455 -2.3045,-1.9553 -0.9442,-0.5003 -2.0787,-0.7506 -3.4036,-0.7506 -1.1415,0 -2.1948,0.1939 -3.1603,0.5816 -0.9652,0.3875 -1.7972,0.9301 -2.4945,1.6277 -0.6976,0.6976 -1.2441,1.529 -1.6384,2.4945 -0.3946,0.9655 -0.5919,2.0259 -0.5919,3.1816 0,1.1698 0.2007,2.2374 0.6023,3.2029 0.4017,0.9652 0.9584,1.7898 1.6702,2.4732 0.7118,0.6837 1.554,1.2158 2.5263,1.5962 0.9725,0.3804 2.0296,0.5709 3.1711,0.5709 0.5074,0 1.0216,-0.0494 1.5432,-0.148 0.5215,-0.0986 1.0218,-0.2466 1.5009,-0.4439 0.4791,-0.1973 0.9162,-0.4405 1.3107,-0.7294 0.3946,-0.2891 0.7328,-0.6236 1.0148,-1.0043 l -1.6489,-1.2685 c -0.3665,0.5074 -0.8844,0.9267 -1.5539,1.258 -0.6696,0.3311 -1.3918,0.4967 -2.1668,0.4967 -0.8739,0 -1.6597,-0.1585 -2.3573,-0.4754 -0.6976,-0.3172 -1.2932,-0.7506 -1.7864,-1.3003 -0.4932,-0.5496 -0.8739,-1.1874 -1.1415,-1.9131 -0.2679,-0.7259 -0.4017,-1.4975 -0.4017,-2.315 0,-0.8456 0.1304,-1.6347 0.3912,-2.3678 0.2608,-0.7327 0.6341,-1.3705 1.1205,-1.9131 0.4862,-0.5425 1.078,-0.9692 1.7756,-1.279 0.6977,-0.3101 1.4763,-0.4651 2.3361,-0.4651 0.8456,0 1.6137,0.1692 2.3043,0.5074 0.6905,0.3381 1.2614,0.8316 1.7124,1.4799 z m 7.2933,-2.3252 h -2.0928 v 14.9672 h 2.0928 z m 17.5107,3.0019 h 0.0423 v 11.9653 h 2.0928 v -14.9672 h -2.6425 l -7.9063,12.219 h -0.0426 v -12.219 h -2.0928 v 14.9672 h 2.7272 z m 9.4496,-3.0019 h -2.3252 l 6.4899,14.9672 h 1.9026 l 6.4267,-14.9672 h -2.3678 l -1.5219,3.6782 h -7.1033 z m 2.2411,5.5176 h 5.6021 l -2.7907,7.0186 z m 20.5693,9.4496 h 5.137 c 0.9584,0 1.9167,-0.1409 2.8751,-0.4227 0.9584,-0.2817 1.8253,-0.7259 2.6003,-1.332 0.7752,-0.6057 1.4023,-1.381 1.8816,-2.3252 0.4791,-0.9442 0.7186,-2.079 0.7186,-3.4039 0,-1.2824 -0.2395,-2.3921 -0.7186,-3.3295 -0.4793,-0.9372 -1.1064,-1.7122 -1.8816,-2.3253 -0.775,-0.6131 -1.6419,-1.0712 -2.6003,-1.3742 -0.9584,-0.3031 -1.9167,-0.4544 -2.8751,-0.4544 h -5.137 z m 2.0928,-13.1281 h 2.6215 c 0.902,0 1.7371,0.127 2.505,0.3807 0.7682,0.2537 1.4306,0.6199 1.9874,1.0993 0.5567,0.479 0.9898,1.0709 1.2999,1.7756 0.3101,0.7047 0.4652,1.5009 0.4652,2.3887 0,0.9304 -0.1551,1.7479 -0.4652,2.4526 -0.3101,0.7047 -0.7432,1.2928 -1.2999,1.7651 -0.5568,0.4723 -1.2192,0.8314 -1.9874,1.078 -0.7679,0.2469 -1.603,0.3702 -2.505,0.3702 h -2.6215 z m 18.8929,-1.8391 h -2.0928 v 14.9672 h 2.0928 z m 7.5748,0 h -2.3256 l 6.4902,14.9672 h 1.9027 l 6.4267,-14.9672 h -2.3678 l -1.5222,3.6782 h -7.1031 z m 2.2408,5.5176 h 5.6024 l -2.7907,7.0186 z m 25.8905,6.3632 c -0.451,0.4932 -1.0259,0.8884 -1.7232,1.1838 -0.697,0.2953 -1.476,0.4439 -2.3357,0.4439 -0.874,0 -1.6637,-0.1591 -2.3678,-0.4754 -0.7041,-0.3166 -1.304,-0.7506 -1.7969,-1.3003 -0.4932,-0.5496 -0.8745,-1.188 -1.1418,-1.9131 -0.267,-0.7253 -0.4014,-1.4975 -0.4014,-2.315 0,-0.8314 0.1344,-1.6143 0.4014,-2.3465 0.2673,-0.7325 0.6489,-1.3711 1.1418,-1.9131 0.4927,-0.5423 1.0998,-0.9695 1.8181,-1.279 0.7181,-0.3096 1.522,-0.4652 2.4098,-0.4652 0.7047,0 1.3538,0.0641 1.9451,0.1902 0.5913,0.1262 1.1064,0.3101 1.5432,0.5497 v 4.1646 h -3.3191 v 1.7759 h 5.3909 v -7.2513 c -0.7894,-0.4226 -1.6492,-0.7469 -2.5792,-0.9723 -0.9301,-0.2256 -1.9449,-0.3384 -3.0441,-0.3384 -1.1699,0 -2.2451,0.1944 -3.2242,0.5816 -0.9788,0.387 -1.8221,0.9307 -2.5262,1.6277 -0.7041,0.697 -1.2549,1.5296 -1.6489,2.4945 -0.394,0.9649 -0.5919,2.0259 -0.5919,3.1816 0,1.1698 0.2016,2.2379 0.6024,3.2029 0.4014,0.9646 0.9584,1.7898 1.6702,2.4732 0.7117,0.6837 1.5539,1.2158 2.5265,1.5962 0.9723,0.3804 2.0293,0.5709 3.1708,0.5709 1.1979,0 2.2655,-0.1763 3.2029,-0.5287 0.9371,-0.3523 1.7158,-0.8243 2.336,-1.4162 z m 19.0327,-8.8789 h 0.0422 v 11.9653 h 2.0931 v -14.9672 h -2.6427 l -7.9064,12.219 h -0.0423 v -12.219 h -2.0931 v 14.9672 h 2.7272 z m 23.9309,4.5028 c 0,-1.1557 -0.2007,-2.2161 -0.6024,-3.1816 -0.4019,-0.9655 -0.955,-1.7969 -1.6597,-2.4945 -0.7047,-0.6976 -1.5431,-1.2402 -2.5157,-1.6277 -0.9726,-0.3877 -2.0293,-0.5816 -3.1708,-0.5816 -1.1418,0 -2.1952,0.1939 -3.1607,0.5816 -0.9655,0.3875 -1.8005,0.9301 -2.5052,1.6277 -0.7047,0.6976 -1.2544,1.529 -1.6489,2.4945 -0.3946,0.9655 -0.5919,2.0259 -0.5919,3.1816 0,1.1698 0.1973,2.2374 0.5919,3.2029 0.3945,0.9654 0.9442,1.7898 1.6489,2.4732 0.7047,0.6837 1.5397,1.2158 2.5052,1.5962 0.9655,0.3807 2.0189,0.5709 3.1607,0.5709 1.1415,0 2.1982,-0.1902 3.1708,-0.5709 0.9726,-0.3804 1.811,-0.9125 2.5157,-1.5962 0.7047,-0.6834 1.2578,-1.5078 1.6597,-2.4732 0.4017,-0.9655 0.6024,-2.0331 0.6024,-3.2029 z m -2.2621,0 c 0,0.8175 -0.1338,1.5891 -0.4016,2.315 -0.2679,0.7257 -0.6483,1.3635 -1.1415,1.9131 -0.4936,0.5497 -1.0888,0.9831 -1.7864,1.3003 -0.6976,0.3169 -1.4834,0.4754 -2.357,0.4754 -0.8598,0 -1.6385,-0.1585 -2.3364,-0.4754 -0.6976,-0.3172 -1.2894,-0.7506 -1.7756,-1.3003 -0.4861,-0.5496 -0.8631,-1.1874 -1.131,-1.9131 -0.2679,-0.7259 -0.4017,-1.4975 -0.4017,-2.315 0,-0.8314 0.1338,-1.6135 0.4017,-2.3465 0.2679,-0.7328 0.6483,-1.3706 1.1415,-1.9131 0.4932,-0.5429 1.0854,-0.9689 1.7759,-1.279 0.6905,-0.3101 1.4658,-0.4652 2.3256,-0.4652 0.8594,0 1.6418,0.1551 2.3465,0.4652 0.7044,0.3101 1.3033,0.7361 1.7969,1.279 0.4932,0.5425 0.8736,1.1803 1.1415,1.9131 0.2678,0.733 0.4016,1.5151 0.4016,2.3465 z m -5.2004,8.3863 h -1.6067 l 2.0928,3.0441 h 2.4101 z m 20.3029,-3.693 c -0.296,0.4088 -0.6979,0.7435 -1.205,1.004 -0.5072,0.2605 -1.0783,0.3912 -1.7125,0.3912 -0.3381,0 -0.68,-0.0459 -1.0252,-0.1375 -0.3453,-0.0915 -0.6591,-0.2398 -0.9409,-0.4439 -0.2814,-0.2041 -0.5108,-0.458 -0.6871,-0.7611 -0.176,-0.303 -0.2642,-0.6658 -0.2642,-1.0887 0,-0.4085 0.0811,-0.7504 0.2432,-1.0253 0.1619,-0.2747 0.3807,-0.5077 0.6551,-0.6976 0.2747,-0.19 0.5993,-0.3524 0.9726,-0.4862 0.3736,-0.1341 0.7699,-0.2772 1.1945,-0.4121 0.5054,-0.1608 1.0219,-0.3317 1.5432,-0.5287 0.5213,-0.197 0.9938,-0.4584 1.4165,-0.7821 0.4226,-0.324 0.7682,-0.7296 1.0357,-1.2158 0.2676,-0.4858 0.4017,-1.1026 0.4017,-1.8496 0,-0.7752 -0.1446,-1.4485 -0.4334,-2.0188 -0.2886,-0.5706 -0.6732,-1.0432 -1.152,-1.4165 -0.4791,-0.3733 -1.0327,-0.6519 -1.6597,-0.8351 -0.6267,-0.1828 -1.2719,-0.2749 -1.9341,-0.2749 -0.9445,0 -1.8572,0.1837 -2.7377,0.5499 -0.8807,0.3659 -1.6103,0.9088 -2.188,1.6276 l 1.6276,1.3743 c 0.3524,-0.5216 0.8249,-0.9445 1.4165,-1.2685 0.5919,-0.324 1.2331,-0.4862 1.9239,-0.4862 0.3523,0 0.7047,0.0496 1.0567,0.148 0.3524,0.0984 0.6733,0.2537 0.9621,0.4649 0.2886,0.2115 0.525,0.4756 0.7081,0.7928 0.1831,0.3172 0.275,0.7013 0.275,1.1523 0,0.451 -0.0956,0.828 -0.2855,1.1308 -0.1902,0.303 -0.4476,0.5607 -0.7716,0.7718 -0.324,0.2112 -0.7013,0.3912 -1.131,0.5392 -0.4297,0.1477 -0.8824,0.3058 -1.3635,0.4544 -0.477,0.1471 -0.9513,0.3135 -1.4164,0.5179 -0.4652,0.2043 -0.881,0.4651 -1.2473,0.7823 -0.3662,0.3167 -0.6627,0.7081 -0.8881,1.173 -0.225,0.4652 -0.3382,1.0432 -0.3382,1.7337 0,0.7469 0.1517,1.3881 0.4547,1.9239 0.303,0.5354 0.6976,0.9793 1.1838,1.3317 0.4861,0.3523 1.0358,0.6094 1.6489,0.7716 0.6131,0.1621 1.2297,0.2432 1.8499,0.2432 0.8736,0 1.6914,-0.1554 2.4522,-0.4652 0.7608,-0.3098 1.3743,-0.7257 1.8391,-1.2472 z m 12.5572,-12.198 h -2.0929 v 13.1281 h -4.7987 v 1.8391 h 11.6906 v -1.8391 h -4.799 z m 12.2045,0 h -2.0928 v 14.9672 h 2.0928 z m 19.5336,2.3252 c -0.5919,-0.803 -1.3601,-1.455 -2.3043,-1.9553 -0.9442,-0.5003 -2.0787,-0.7506 -3.4036,-0.7506 -1.1415,0 -2.1951,0.1939 -3.1606,0.5816 -0.9652,0.3875 -1.7969,0.9301 -2.4945,1.6277 -0.6976,0.6976 -1.2438,1.529 -1.6384,2.4945 -0.3946,0.9655 -0.5919,2.0259 -0.5919,3.1816 0,1.1698 0.201,2.2374 0.6027,3.2029 0.4016,0.9652 0.9583,1.7898 1.6698,2.4732 0.7118,0.6837 1.554,1.2158 2.5266,1.5962 0.9722,0.3804 2.0293,0.5709 3.1708,0.5709 0.5074,0 1.0219,-0.0494 1.5432,-0.148 0.5216,-0.0986 1.0222,-0.2466 1.5012,-0.4439 0.4791,-0.1973 0.9159,-0.4405 1.3105,-0.7294 0.3945,-0.2891 0.733,-0.6236 1.0148,-1.0043 l -1.6489,-1.2685 c -0.3666,0.5074 -0.8845,0.9267 -1.5537,1.258 -0.6696,0.3311 -1.3918,0.4967 -2.1671,0.4967 -0.8736,0 -1.6597,-0.1585 -2.357,-0.4754 -0.6976,-0.3172 -1.2932,-0.7506 -1.7864,-1.3003 -0.4932,-0.5496 -0.8739,-1.1874 -1.1415,-1.9131 -0.2679,-0.7259 -0.4017,-1.4975 -0.4017,-2.315 0,-0.8456 0.1304,-1.6347 0.3909,-2.3678 0.2608,-0.7327 0.6344,-1.3705 1.1205,-1.9131 0.4862,-0.5425 1.0783,-0.9692 1.776,-1.279 0.6973,-0.3101 1.4762,-0.4651 2.336,-0.4651 0.8456,0 1.6135,0.1692 2.304,0.5074 0.6905,0.3381 1.2614,0.8316 1.7127,1.4799 z m 5.5598,-2.3252 h -2.3255 l 6.4902,14.9672 h 1.9026 l 6.4267,-14.9672 h -2.3678 l -1.5222,3.6782 h -7.103 z m 2.2408,5.5176 h 5.6024 l -2.7907,7.0186 z"
         style="fill:#2f4a69;fill-opacity:1;fill-rule:nonzero;stroke:none"
         transform="matrix(1.3333333,0,0,-1.3333333,0,755.90547)" />
      <g
         id="g14"
         style="fill:#2f4a69;fill-opacity:1">
        <path
           id="path3"
           d="m 432.90292,349.45815 c 0,2.6324 -0.3304,5.2176 -0.99133,7.75333 -0.65573,2.516 -1.6336,4.92093 -2.93293,7.2124 -1.28734,2.2704 -2.7972,4.3196 -4.52947,6.14627 l -0.41453,0.42906 c 0.13946,0.14174 0.27813,0.28454 0.41453,0.42854 1.73227,1.82666 3.24213,3.87586 4.52947,6.14626 1.29933,2.29147 2.2772,4.6964 2.93293,7.21254 0.66027,2.53453 0.99133,5.12013 0.99133,7.75253 0,4.18653 -0.75746,8.11267 -2.27306,11.77507 -1.5068,3.64533 -3.74734,6.95813 -6.71734,9.93186 l -0.0107,0.0107 -0.0107,0.0107 c -2.97333,2.97 -6.2864,5.2108 -9.93173,6.71773 -3.66134,1.5148 -7.58707,2.27306 -11.7752,2.27306 h -68.62294 -5.17533 v -5.17533 -51.08493 -5.1752 h 5.17533 68.62294 c 1.7824,0 3.38573,-0.29253 4.8076,-0.87573 1.44786,-0.59414 2.80026,-1.51187 4.0512,-2.74854 1.2224,-1.20826 2.134,-2.53146 2.73226,-3.96626 0.59334,-1.42294 0.89014,-3.01494 0.89014,-4.77307 0,-1.76093 -0.29747,-3.35773 -0.89014,-4.7868 -0.59493,-1.4332 -1.52053,-2.778 -2.77266,-4.03053 -1.25254,-1.25254 -2.59734,-2.17774 -4.0308,-2.77267 -1.42907,-0.59253 -3.0256,-0.89 -4.7876,-0.89 h -68.62294 -5.17533 v -5.17533 -7.8868 -5.1752 h 5.17533 68.62294 c 4.18813,0 8.11386,0.75853 11.7752,2.27293 3.64533,1.50733 6.9584,3.74773 9.93173,6.71773 l 0.0107,0.0107 0.0107,0.0107 c 2.97,2.97373 5.21054,6.28573 6.71734,9.93146 1.51493,3.662 2.27306,7.58814 2.27306,11.7748 z m -21.89973,51.89893 c 1.25213,-1.25213 2.17773,-2.59733 2.77267,-4.03053 0.59266,-1.42907 0.89013,-3.02587 0.89013,-4.78747 0,-1.75747 -0.2968,-3.34947 -0.89013,-4.77173 -0.59827,-1.43507 -1.50987,-2.75867 -2.73227,-3.96694 -1.25173,-1.23746 -2.60333,-2.1544 -4.0512,-2.74853 -1.42187,-0.58307 -3.0252,-0.8756 -4.8076,-0.8756 h -55.56093 v 24.84347 h 55.56093 c 1.762,0 3.35853,-0.29707 4.7876,-0.89 1.43347,-0.59494 2.77827,-1.52014 4.0308,-2.77267"
           style="fill:#2f4a69;fill-opacity:1;fill-rule:evenodd;stroke:none;stroke-width:1.33333" />
        <path
           id="path5"
           d="m 651.96012,318.74081 h 11.18213 11.44373 l -7.58213,8.5916 -38.53573,43.6664 38.53573,43.66667 7.58173,8.59173 h -11.44333 -11.18213 -2.3316 l -1.54987,-1.75906 -32.01867,-36.32307 -32.01986,36.32307 -1.55027,1.75906 h -2.33093 -11.1824 -11.44373 l 7.58253,-8.59173 38.53533,-43.66667 -38.53533,-43.6664 -7.5832,-8.5916 h 11.4444 11.1824 2.33093 l 1.55027,1.75894 32.01986,36.3232 32.01867,-36.3232 1.54987,-1.75894 z"
           style="fill:#2f4a69;fill-opacity:1;fill-rule:evenodd;stroke:none;stroke-width:1.33333" />
        <path
           id="path6"
           d="m 461.38199,407.96935 c -5.05547,-5.05467 -8.86973,-10.69374 -11.44093,-16.91187 -2.5644,-6.20413 -3.8472,-12.8904 -3.8472,-20.05867 0,-7.16826 1.2828,-13.85506 3.8472,-20.0584 2.5712,-6.21653 6.38506,-11.8556 11.44093,-16.91186 5.05587,-5.05587 10.69493,-8.86974 16.9116,-11.44067 6.2036,-2.5644 12.89,-3.84707 20.05906,-3.84707 h 47.08227 5.17533 v 5.1752 7.8868 5.17534 h -5.17533 -47.08227 c -4.44813,0 -8.552,0.72786 -12.31,2.18186 -3.7908,1.4668 -7.29893,3.6764 -10.52106,6.6252 -3.228,2.9548 -5.7604,6.2456 -7.59267,9.86827 -0.9872,1.95293 -1.77333,4.00893 -2.35693,6.16827 h 79.86293 5.17533 v 5.1752 8.004 5.17533 h -5.17533 -79.86293 c 0.5828,2.1592 1.36893,4.2156 2.35693,6.16893 1.83227,3.62227 4.36467,6.91307 7.59267,9.8676 3.22213,2.94867 6.73026,5.15827 10.52106,6.62507 3.7588,1.4548 7.86254,2.18187 12.31,2.18187 h 47.08227 5.17533 v 5.17573 7.8864 5.17533 h -5.17533 -47.08227 c -7.16826,0 -13.85546,-1.2828 -20.05906,-3.8476 -6.21734,-2.5704 -11.85573,-6.3844 -16.9116,-11.44026"
           style="fill:#2f4a69;fill-opacity:1;fill-rule:evenodd;stroke:none;stroke-width:1.33333" />
        <path
           id="path7"
           d="m 199.694,415.55481 52.96773,-94.16573 4.5136,-8.0236 4.50253,8.0236 52.85067,94.16573 4.32293,7.7024 h -8.8312 -9.65133 -3.024 l -1.48427,-2.6484 -38.69707,-69.06333 -38.80213,69.06333 -1.4876,2.6484 h -3.02027 -9.65173 -8.84 z"
           style="fill:#2f4a69;fill-opacity:1;fill-rule:evenodd;stroke:none;stroke-width:1.33333" />
        <path
           id="path8"
           d="m 155.11746,405.01975 h 18.4804 7.0624 5.17534 v 5.17573 7.8864 5.17533 h -5.17534 -25.5428 -68.622929 -5.175333 v -5.17533 -6.12053 -1.76587 -86.27947 -5.1752 h 5.175333 7.886667 5.175333 v 5.1752 81.10374 z"
           style="fill:#2f4a69;fill-opacity:1;fill-rule:evenodd;stroke:none;stroke-width:1.33333" />
      </g>
    </g>
  </g>
</svg>
